# xmcd
#
# Track frame offsets:
#	150
#	19436
#	33172
#	48507
#	63651
#	75345
#	95199
#	111054
#	125985
#	143841
#	162705
#	177214
#	190928
#	209922
#	224290
#	241415
#	258712
#	270783
#	299305
#
# Disc length: 3996 seconds
#
# Revision: 1
# Processed by: cddbd v1.5.2PL0 Copyright (c) Steve Scherf et al.
# Submitted via: audiograbber 1.83.01
#
DISCID=2c0f9a13
DTITLE=Various Artist - mixed country fun pack TTFP-07 and 08
DYEAR=1900
DGENRE=KARAOKE
TTITLE0=F. Hill And T. Mcgraw - Let`s Make Love
TTITLE1=Lee Ann Womack - Lord I Hope This Day Is Good
TTITLE2=Brad Paisley - Me Neither
TTITLE3=Mark Mcguinn - Mrs. Steven Rudy
TTITLE4=Martina Mcbride - My Baby Loves Me
TTITLE5=Tim Mcgraw - One Of These Days
TTITLE6=Rascal Flatts - Prayin` For Daylight
TTITLE7=Alabama - Song Of The South
TTITLE8=Deanna Carter - Strawberry Wine
TTITLE9=Brad Paisley - Two People Fell In Love
TTITLE10=Faith Hill - Way You Love Me
TTITLE11=George Strait - What Do You Say To That
TTITLE12=Clint Black - When I Said I Do
TTITLE13=Alan Jackson - When Somebody Loves You
TTITLE14=Jessica Andrews - Who I Am
TTITLE15=Dixie Chicks - Wide Open Spaces
TTITLE16=Alan Jackson - Www.memory
TTITLE17=Dixie Chicks - You Were Mine
TTITLE18=data - Data Track
EXTD=cd 2
EXTT0=
EXTT1=
EXTT2=
EXTT3=
EXTT4=
EXTT5=
EXTT6=
EXTT7=
EXTT8=
EXTT9=
EXTT10=
EXTT11=
EXTT12=
EXTT13=
EXTT14=
EXTT15=
EXTT16=
EXTT17=
EXTT18=
PLAYORDER=
